<svg width="62" height="62" viewBox="0 0 62 62" fill="none" xmlns="http://www.w3.org/2000/svg">
<rect width="62" height="62" rx="4" fill="#FED32C"/>
<path d="M43.8933 24.2667C43.04 21.3734 40.6266 18.96 37.7333 18.1067C35.5333 17.4667 34.0133 17.52 32.96 18.3067C31.6933 19.2534 31.5466 20.96 31.5466 22.1734V25.4934C31.5466 28.7734 33.04 30.44 35.9733 30.44H39.8C41 30.44 42.72 30.2934 43.6666 29.0267C44.48 27.9867 44.5466 26.4667 43.8933 24.2667Z" fill="black"/>
<path d="M40.2133 32.8133C39.8667 32.4133 39.36 32.1866 38.84 32.1866H34.0667C31.72 32.1866 29.8133 30.28 29.8133 27.9333V23.16C29.8133 22.64 29.5867 22.1333 29.1867 21.7866C28.8 21.44 28.2667 21.28 27.76 21.3466C24.6267 21.7466 21.7467 23.4666 19.8667 26.0533C17.9733 28.6533 17.28 31.8266 17.88 35C18.7467 39.5866 22.4133 43.2533 27.0133 44.12C27.7467 44.2666 28.48 44.3333 29.2133 44.3333C31.6267 44.3333 33.96 43.5866 35.9467 42.1333C38.5333 40.2533 40.2533 37.3733 40.6533 34.24C40.72 33.72 40.56 33.2 40.2133 32.8133Z" fill="black"/>
</svg>
