<svg width="62" height="62" viewBox="0 0 62 62" fill="none" xmlns="http://www.w3.org/2000/svg">
<rect width="62" height="62" rx="4" fill="#FED32C"/>
<path d="M37.3333 19.7467V17.6667C37.3333 17.1201 36.88 16.6667 36.3333 16.6667C35.7866 16.6667 35.3333 17.1201 35.3333 17.6667V19.6667H26.6666V17.6667C26.6666 17.1201 26.2133 16.6667 25.6666 16.6667C25.12 16.6667 24.6666 17.1201 24.6666 17.6667V19.7467C21.0666 20.0801 19.32 22.2267 19.0533 25.4134C19.0266 25.8001 19.3466 26.1201 19.72 26.1201H42.28C42.6666 26.1201 42.9866 25.7867 42.9466 25.4134C42.68 22.2267 40.9333 20.0801 37.3333 19.7467Z" fill="black"/>
<path d="M41.6667 28.1201H20.3333C19.6 28.1201 19 28.7201 19 29.4535V37.6668C19 41.6668 21 44.3335 25.6667 44.3335H36.3333C41 44.3335 43 41.6668 43 37.6668V29.4535C43 28.7201 42.4 28.1201 41.6667 28.1201ZM27.28 39.2801C27.2133 39.3334 27.1467 39.4001 27.08 39.4401C27 39.4935 26.92 39.5335 26.84 39.5601C26.76 39.6001 26.68 39.6268 26.6 39.6401C26.5067 39.6535 26.4267 39.6668 26.3333 39.6668C26.16 39.6668 25.9867 39.6268 25.8267 39.5601C25.6533 39.4935 25.52 39.4001 25.3867 39.2801C25.1467 39.0268 25 38.6801 25 38.3335C25 37.9868 25.1467 37.6401 25.3867 37.3868C25.52 37.2668 25.6533 37.1735 25.8267 37.1068C26.0667 37.0001 26.3333 36.9735 26.6 37.0268C26.68 37.0401 26.76 37.0668 26.84 37.1068C26.92 37.1335 27 37.1735 27.08 37.2268L27.28 37.3868C27.52 37.6401 27.6667 37.9868 27.6667 38.3335C27.6667 38.6801 27.52 39.0268 27.28 39.2801ZM27.28 34.6135C27.0267 34.8535 26.68 35.0001 26.3333 35.0001C25.9867 35.0001 25.64 34.8535 25.3867 34.6135C25.1467 34.3601 25 34.0135 25 33.6668C25 33.3201 25.1467 32.9735 25.3867 32.7201C25.76 32.3468 26.3467 32.2268 26.84 32.4401C27.0133 32.5068 27.16 32.6001 27.28 32.7201C27.52 32.9735 27.6667 33.3201 27.6667 33.6668C27.6667 34.0135 27.52 34.3601 27.28 34.6135ZM31.9467 39.2801C31.6933 39.5201 31.3467 39.6668 31 39.6668C30.6533 39.6668 30.3067 39.5201 30.0533 39.2801C29.8133 39.0268 29.6667 38.6801 29.6667 38.3335C29.6667 37.9868 29.8133 37.6401 30.0533 37.3868C30.5467 36.8935 31.4533 36.8935 31.9467 37.3868C32.1867 37.6401 32.3333 37.9868 32.3333 38.3335C32.3333 38.6801 32.1867 39.0268 31.9467 39.2801ZM31.9467 34.6135L31.7467 34.7735C31.6667 34.8268 31.5867 34.8668 31.5067 34.8935C31.4267 34.9335 31.3467 34.9601 31.2667 34.9734C31.1733 34.9868 31.0933 35.0001 31 35.0001C30.6533 35.0001 30.3067 34.8535 30.0533 34.6135C29.8133 34.3601 29.6667 34.0135 29.6667 33.6668C29.6667 33.3201 29.8133 32.9735 30.0533 32.7201C30.1733 32.6001 30.32 32.5068 30.4933 32.4401C30.9867 32.2268 31.5733 32.3468 31.9467 32.7201C32.1867 32.9735 32.3333 33.3201 32.3333 33.6668C32.3333 34.0135 32.1867 34.3601 31.9467 34.6135ZM36.6133 39.2801C36.36 39.5201 36.0133 39.6668 35.6667 39.6668C35.32 39.6668 34.9733 39.5201 34.72 39.2801C34.48 39.0268 34.3333 38.6801 34.3333 38.3335C34.3333 37.9868 34.48 37.6401 34.72 37.3868C35.2133 36.8935 36.12 36.8935 36.6133 37.3868C36.8533 37.6401 37 37.9868 37 38.3335C37 38.6801 36.8533 39.0268 36.6133 39.2801ZM36.6133 34.6135L36.4133 34.7735C36.3333 34.8268 36.2533 34.8668 36.1733 34.8935C36.0933 34.9335 36.0133 34.9601 35.9333 34.9734C35.84 34.9868 35.7467 35.0001 35.6667 35.0001C35.32 35.0001 34.9733 34.8535 34.72 34.6135C34.48 34.3601 34.3333 34.0135 34.3333 33.6668C34.3333 33.3201 34.48 32.9735 34.72 32.7201C34.8533 32.6001 34.9867 32.5068 35.16 32.4401C35.4 32.3335 35.6667 32.3068 35.9333 32.3601C36.0133 32.3735 36.0933 32.4001 36.1733 32.4401C36.2533 32.4668 36.3333 32.5068 36.4133 32.5601L36.6133 32.7201C36.8533 32.9735 37 33.3201 37 33.6668C37 34.0135 36.8533 34.3601 36.6133 34.6135Z" fill="black"/>
</svg>
