<svg width="62" height="62" viewBox="0 0 62 62" fill="none" xmlns="http://www.w3.org/2000/svg">
<rect width="62" height="62" rx="4" fill="#FED32C"/>
<path d="M37.2 22.6267H24.8C20.8666 22.6267 17.6666 25.8267 17.6666 29.76V37.2C17.6666 41.1334 20.8666 44.3334 24.8 44.3334H37.2C41.1333 44.3334 44.3333 41.1334 44.3333 37.2V29.76C44.3333 25.8267 41.1333 22.6267 37.2 22.6267ZM34.3333 31.0267C34.3333 30.2934 34.9333 29.6934 35.6666 29.6934C36.4 29.6934 37 30.2934 37 31.0267C37 31.76 36.4 32.3734 35.6666 32.3734C34.9333 32.3734 34.3333 31.7867 34.3333 31.0534V31.0267ZM28.5066 36.4267C28.3066 36.6267 28.0533 36.72 27.8 36.72C27.5466 36.72 27.2933 36.6267 27.0933 36.4267L25.72 35.0534L24.4 36.3734C24.2 36.5734 23.9466 36.6667 23.6933 36.6667C23.44 36.6667 23.1866 36.5734 22.9866 36.3734C22.8007 36.1852 22.6964 35.9313 22.6964 35.6667C22.6964 35.4021 22.8007 35.1482 22.9866 34.96L24.3066 33.64L23.0266 32.36C22.8407 32.1719 22.7364 31.9179 22.7364 31.6534C22.7364 31.3888 22.8407 31.1349 23.0266 30.9467C23.4133 30.56 24.0533 30.56 24.44 30.9467L25.72 32.2267L27.04 30.9067C27.4266 30.52 28.0666 30.52 28.4533 30.9067C28.84 31.2934 28.84 31.9334 28.4533 32.32L27.1333 33.64L28.5066 35.0134C28.8933 35.4 28.8933 36.04 28.5066 36.4267ZM33.0533 35C32.32 35 31.7066 34.4 31.7066 33.6667C31.7066 32.9334 32.2933 32.3334 33.0266 32.3334H33.0533C33.7866 32.3334 34.3866 32.9334 34.3866 33.6667C34.3866 34.4 33.8 35 33.0533 35ZM35.6666 37.6267C34.9333 37.6267 34.3333 37.04 34.3333 36.3067V36.28C34.3333 35.5467 34.9333 34.9467 35.6666 34.9467C36.4 34.9467 37 35.5467 37 36.28C37 37.0134 36.4133 37.6267 35.6666 37.6267ZM38.3066 35C37.5733 35 36.96 34.4 36.96 33.6667C36.96 32.9334 37.5466 32.3334 38.28 32.3334H38.3066C39.04 32.3334 39.64 32.9334 39.64 33.6667C39.64 34.4 39.0533 35 38.3066 35Z" fill="black"/>
<path d="M33.1866 18.6134L33.1732 19.8667C33.1628 20.4374 32.9296 20.9814 32.5236 21.3825C32.1175 21.7836 31.5707 22.01 30.9999 22.0134C30.7999 22.0134 30.6799 22.1467 30.6799 22.3201C30.6799 22.4934 30.8132 22.6267 30.9866 22.6267H28.8399C28.8266 22.5334 28.8132 22.4267 28.8132 22.3201C28.8132 21.1201 29.7866 20.1467 30.9732 20.1467C31.1732 20.1467 31.3066 20.0134 31.3066 19.8401L31.3199 18.5867C31.3332 18.0801 31.7466 17.6667 32.2532 17.6667H32.2666C32.7866 17.6667 33.1866 18.0934 33.1866 18.6134Z" fill="black"/>
</svg>
